<svg xmlns="http://www.w3.org/2000/svg" width="42.562" height="42.562"><path d="M33.052 20.892c3.347.263 6.67.55 9.416 1.407-2.724-.446-6.031-1.124-9.416-1.219-1.397 2.76-4.214 4.116-8.099 4.401.418.908 1.218 1.254 1.414 2.717.289 2.185-.457 5.383.279 6.838.354.697.93.715 1.318 1.312-.951 1.125-3.311-.127-3.578-1.312-.461-2.03.7-5.18-.564-6.559.09 2.217-.522 5.326.095 7.307.243.777.946 1.08.754 1.781-4.423.449-2.574-5.725-3.297-9.367-.668.047-.375 1-.377 1.404-.02 3.559.729 8.438-3.107 7.963-.111-.746.517-1.004.754-1.686.699-2.002-.131-4.986.19-7.402-1.464 1.104.153 4.957-.755 6.934-.521 1.136-2.206 1.631-3.482 1.123.166-.848 1.041-.709 1.412-1.498.518-1.102.002-2.686.188-4.311-2.71.541-4.812-.076-5.84-1.779-.459-.764-.574-1.664-1.129-2.34-.556-.68-1.438-.77-1.694-1.688 3.354-.809 3.483 3.453 6.497 3.559.925.033 1.404-.268 2.26-.467.238-1.074.752-1.877 1.507-2.438-3.75-.515-6.847-1.683-8.286-4.495-3.408.168-6.527.623-9.418 1.312 2.623-.954 5.856-1.294 9.324-1.405-.205-1.229-1.996-.891-3.107-.844-2.065.092-4.668.349-6.311.657 2.383-.85 5.723-.744 8.947-.75-.986-3.093-.646-8.006 1.506-9.836-.609-1.535-.42-4.05.377-5.246 2.4.108 3.857 1.155 5.367 2.155 1.871-.532 3.839-.797 6.402-.655 1.078.062 2.201.543 3.013.467.797-.072 1.676-.969 2.448-1.31 1.009-.446 1.86-.614 3.015-.657.554 1.258.912 3.344.377 4.871 2.188 1.868 2.938 6.407 1.883 10.118 3.117.237 6.83-.114 9.229.843-2.24-.289-5.301-.854-8.189-.656-.553.038-1.362-.018-1.323.751z"/></svg>