<svg width="14" height="14" fill="none" xmlns="http://www.w3.org/2000/svg"><path d="M11.656 5.474V3.088h-1.484v2.386H7.83v1.512h2.343v2.386h1.484V6.986H14V5.474h-2.344zM5.604 2.725c.352 1.262-.18 2.582-1.028 2.826a1.092 1.092 0 01-.3.042c-.777 0-1.547-.8-1.832-1.903-.16-.62-.147-1.16.036-1.681.18-.512.502-.858.909-.975.097-.028.199-.042.3-.042.938 0 1.541.396 1.915 1.733zm.938 7.935c.068 1.12-.871 1.944-2.283 2.05-1.433.106-2.613-.551-2.682-1.669-.033-.537.2-1.063.653-1.482.46-.424 1.092-.686 1.78-.738.081-.005.162-.008.242-.008 1.326 0 2.225.794 2.29 1.847zm-5.8-7.17c0 1.189.39 2.047 1.159 2.55.629.413 1.36.475 1.738.475.092 0 .166-.003.218-.007 0 0-.12.798.46 1.588h-.026C3.285 8.096 0 8.31 0 11.059 0 13.857 3.017 14 3.622 14h.198c.389 0 1.393-.05 2.325-.511 1.21-.598 1.823-1.638 1.823-3.09 0-1.404-.935-2.24-1.617-2.85-.417-.373-.776-.694-.776-1.007 0-.318.262-.557.595-.86.538-.49 1.045-1.188 1.045-2.507 0-1.159-.148-1.937-1.057-2.43.095-.05.43-.086.596-.11C7.247.567 7.968.49 7.968.08V0H4.375C4.34.001.743.137.743 3.49z" fill="#666D89"/></svg>